<?xml version="1.0" encoding="UTF-8" standalone="no"?>
<svg
   version="1.1"
   viewBox="-5 -10 87.509842 80.327461"
   id="svg6"
   sodipodi:docname="noun-event-6985170.svg"
   width="87.509842"
   height="80.327461"
   inkscape:version="1.4 (86a8ad7, 2024-10-11)"
   xmlns:inkscape="http://www.inkscape.org/namespaces/inkscape"
   xmlns:sodipodi="http://sodipodi.sourceforge.net/DTD/sodipodi-0.dtd"
   xmlns="http://www.w3.org/2000/svg"
   xmlns:svg="http://www.w3.org/2000/svg">
  <defs
     id="defs6" />
  <sodipodi:namedview
     id="namedview6"
     pagecolor="#ffffff"
     bordercolor="#000000"
     borderopacity="0.25"
     inkscape:showpageshadow="2"
     inkscape:pageopacity="0.0"
     inkscape:pagecheckerboard="0"
     inkscape:deskcolor="#d1d1d1"
     inkscape:zoom="4.8117677"
     inkscape:cx="43.746916"
     inkscape:cy="47.695569"
     inkscape:current-layer="svg6" />
  <g
     id="g5"
     transform="translate(-11.251179,-19.83632)">
    <path
       d="M 93.641,74.336 83.106,18.141 c -0.11328,-0.45703 -0.40234,-0.85156 -0.80859,-1.0938 -0.05469,-0.45312 -6.6797,-0.15234 -7.0352,-0.23438 v -1.7148 c 0,-2.9062 -2.3555,-5.2617 -5.2578,-5.2617 -2.9062,0 -5.2617,2.3555 -5.2617,5.2617 v 1.7148 h -27.438 v -1.7148 c -0.03516,-2.8828 -2.3789,-5.1953 -5.2578,-5.1953 -2.8789,0 -5.2266,2.3125 -5.2617,5.1953 v 1.7148 h -5.3516 c -2.4102,0.10938 -4.3594,1.9922 -4.5586,4.3945 l -4.8438,39.73 c -0.09375,0.87891 0.53906,1.668 1.418,1.7773 0.875,0.10547 1.6797,-0.51172 1.8008,-1.3867 l 3.3633,-27.582 h 59.621 l -5.1719,48.297 c 0.0039,0.78906 -0.57422,1.4609 -1.3516,1.5742 l -42.531,-0.40234 c 3.9336,-7.7461 -2.207,-17.641 -10.914,-17.43 -15.996,0.55078 -16.043,23.809 0,24.379 3.2852,-0.0039 6.4258,-1.3477 8.6953,-3.7266 l 44.719,0.42578 c 2.4648,-0.07422 4.4648,-2.0195 4.6094,-4.4805 l 0.21875,-2.043 h 12.625 c 1.4414,-0.08984 2.7734,-0.80859 3.6406,-1.9609 0.86719,-1.1562 1.1836,-2.6328 0.86719,-4.043 z M 18.266,86.922 c -11.711,-0.375 -11.715,-17.52 0,-17.895 11.688,0.36719 11.738,17.5 0,17.895 z M 67.989,15.098 c 0.01563,-1.1055 0.91016,-1.9883 2.0156,-1.9883 1.1016,0 2,0.88281 2.0156,1.9883 v 6.6875 c 0,1.1133 -0.90234,2.0156 -2.0156,2.0156 -1.1133,0 -2.0156,-0.90234 -2.0156,-2.0156 z m -37.957,0 c 0.01563,-1.1016 0.91406,-1.9883 2.0156,-1.9883 1.10154,0 2,0.88672 2.0156,1.9883 v 6.6875 c -0.01563,1.1016 -0.91406,1.9844 -2.0156,1.9844 -1.10154,0 -2,-0.88281 -2.0156,-1.9844 z m -11.02,15.406 1.0859,-8.9023 H 20.094 c 0.01563,-0.76953 0.57812,-1.4219 1.3398,-1.5469 h 5.3516 v 1.7305 c 0.03516,2.8828 2.3789,5.1992 5.2617,5.1992 2.8828,0 5.2266,-2.3164 5.2578,-5.1992 v -1.7305 h 27.438 v 1.7305 c 0.03516,2.8789 2.3789,5.1953 5.2617,5.1953 2.8789,0 5.2227,-2.3164 5.2578,-5.1953 v -1.7305 h 4.4414 l -1.1211,10.449 z m 71.039,46.117 c -0.21875,0.28906 -0.55469,0.46094 -0.91797,0.47266 h -12.277 l 5.0898,-47.535 8.5078,45.371 v 0.0039 c 0.12109,0.59375 -0.02734,1.2109 -0.40234,1.6875 z"
       id="path1" />
    <path
       d="m 54.746,48.84 c -0.19141,-0.02734 -0.35938,-0.14453 -0.44531,-0.31641 l -3.5469,-7.1328 c -0.65234,-1.3008 -1.9844,-2.125 -3.4375,-2.125 -1.457,0 -2.7852,0.82422 -3.4375,2.125 l -3.5469,7.1328 c -0.08594,0.17187 -0.25391,0.28906 -0.44531,0.31641 l -7.9336,1.1445 c -1.4453,0.20312 -2.6445,1.207 -3.0977,2.5938 -0.44922,1.3867 -0.07422,2.9102 0.97266,3.9219 l 5.7422,5.5508 c 0.13672,0.12891 0.19922,0.31641 0.16797,0.5 l -1.3555,7.8398 c -0.24219,1.4336 0.34766,2.8828 1.5273,3.7383 1.1797,0.85547 2.7422,0.96484 4.0312,0.28906 l 7.0938,-3.6992 c 0.17578,-0.08984 0.38281,-0.08984 0.55859,0 l 7.0938,3.6992 h 0.0039 c 1.2969,0.67969 2.8672,0.5625 4.0469,-0.30469 1.1758,-0.84766 1.7617,-2.293 1.5117,-3.7227 l -1.3555,-7.8359 v -0.0039 c -0.03125,-0.18359 0.03125,-0.37109 0.16797,-0.5 l 5.7383,-5.5508 c 1.0312,-1.0195 1.3945,-2.5352 0.94531,-3.9102 -0.44922,-1.3789 -1.6367,-2.3867 -3.0664,-2.6055 z m 7.8008,5.3281 -5.7383,5.5508 c -0.91016,0.875 -1.3242,2.1445 -1.1094,3.3867 l 1.3555,7.8398 v -0.0039 c 0.03906,0.22266 -0.05469,0.44922 -0.23828,0.57812 -0.1875,0.12891 -0.42969,0.13672 -0.625,0.02344 l -7.0977,-3.6992 v -0.0039 c -1.1133,-0.57812 -2.4414,-0.57812 -3.5586,0 l -7.0977,3.6992 v 0.0039 c -0.19141,0.11328 -0.4375,0.10156 -0.62109,-0.02344 -0.18359,-0.12891 -0.27734,-0.35547 -0.23828,-0.57812 l 1.3555,-7.8398 v 0.0039 c 0.21484,-1.2422 -0.19922,-2.5117 -1.1094,-3.3867 l -5.7422,-5.5508 h 0.0039 c -0.16406,-0.14844 -0.22656,-0.38281 -0.15625,-0.59375 0.07422,-0.21094 0.26172,-0.35938 0.48437,-0.37891 l 7.9336,-1.1445 c 1.2461,-0.17969 2.3281,-0.95703 2.8867,-2.0859 l 3.5469,-7.1328 0.0039,0.0039 c 0.10156,-0.19922 0.30469,-0.32422 0.53125,-0.32422 0.22266,0 0.42969,0.125 0.53125,0.32422 l 3.5469,7.1328 v -0.0039 c 0.5625,1.1289 1.6406,1.9062 2.8867,2.0859 l 7.9336,1.1445 c 0.22266,0.01953 0.41406,0.16797 0.48438,0.37891 0.07422,0.21094 0.01172,0.44531 -0.15234,0.59375 z"
       id="path2" />
    <path
       d="m 21.523,73.945 -4.5742,4.6094 c -1.125,-0.94531 -2.5547,-3.5039 -4.2383,-1.9688 -0.63281,0.63281 -0.63672,1.6602 -0.0078,2.2969 l 3.0938,3.1211 0.0039,-0.0039 c 0.30469,0.30859 0.71875,0.48047 1.1484,0.48047 0.43359,0 0.84766,-0.17188 1.1523,-0.48047 l 5.7266,-5.7695 c 0.60938,-0.64062 0.59766,-1.6484 -0.03125,-2.2734 -0.62891,-0.62109 -1.6406,-0.62891 -2.2734,-0.01172 z"
       id="path3" />
    <path
       d="m 29.16,39.27 h -6.8125 c -0.88281,0.01563 -1.5898,0.73828 -1.5898,1.6211 0,0.88282 0.70703,1.6055 1.5898,1.6211 H 29.16 c 0.88281,-0.01563 1.5898,-0.73828 1.5898,-1.6211 0,-0.88282 -0.70703,-1.6055 -1.5898,-1.6211 z"
       id="path4" />
    <path
       d="m 72.285,42.512 c 0.88281,-0.01563 1.5898,-0.73828 1.5898,-1.6211 0,-0.88282 -0.70703,-1.6055 -1.5898,-1.6211 h -6.8164 c -0.88281,0.01563 -1.5898,0.73828 -1.5898,1.6211 0,0.88282 0.70703,1.6055 1.5898,1.6211 z"
       id="path5" />
  </g>
</svg>
